<svg width="748" height="166" viewBox="0 0 748 166" fill="none" xmlns="http://www.w3.org/2000/svg">
<path d="M48.9551 66.0498H0V64.9951L6.81152 62.8857V6.19629L0 4.08691V3.03223H47.8564L49.9219 17.7539H48.8232C48.2666 14.5898 46.6113 11.6602 43.8574 8.96484C41.1035 6.24023 37.9688 4.61426 34.4531 4.08691H17.3145V34.0137H35.332L38.3203 24.5654H39.375V44.5166H38.3203L35.332 35.0684H17.3145V64.9951H33.2227C35.4492 64.9951 37.5293 64.4238 39.4629 63.2812C41.3965 62.1094 43.1104 60.6299 44.6045 58.8428C46.1279 57.0264 47.3438 55.0928 48.252 53.042C49.1895 50.9912 49.7754 49.0283 50.0098 47.1533H51.0645L48.9551 66.0498Z" fill="#1F1F1F"/>
<path d="M75.542 65.6104H54.1406V64.5996L59.8975 63.0176V2.63672L54.1406 1.05469V0H64.4238C66.3281 0 67.6904 0.424805 68.5107 1.27441C69.3604 2.12402 69.7852 3.45703 69.7852 5.27344V63.0176L75.542 64.5996V65.6104Z" fill="#1F1F1F"/>
<path d="M117.334 66.665C113.613 66.665 110.771 65.4639 108.809 63.0615C106.846 60.6299 105.864 56.6748 105.864 51.1963V22.5879H98.5254V21.5332H105.864V14.1064C105.864 12.5537 106.289 11.3965 107.139 10.6348C108.018 9.84375 109.38 9.25781 111.226 8.87695L115.708 7.86621V21.5332H125.815V22.5879H115.708V51.5039C115.708 55.2246 116.162 57.8467 117.07 59.3701C118.008 60.8643 119.297 61.6113 120.938 61.6113C123.311 61.6113 125.347 60.2197 127.046 57.4365L127.705 57.832C126.943 60.7324 125.728 62.9297 124.058 64.4238C122.388 65.918 120.146 66.665 117.334 66.665Z" fill="#1F1F1F"/>
<path d="M146.47 66.709C142.046 66.709 138.545 65.625 135.967 63.457C133.389 61.2891 132.1 58.3594 132.1 54.668C132.1 51.5918 132.583 49.1602 133.55 47.373C134.517 45.5566 135.996 44.1211 137.988 43.0664C139.98 41.9824 142.515 41.0742 145.591 40.3418L161.016 36.4746C160.723 31.377 159.639 27.6123 157.764 25.1807C155.918 22.749 153.428 21.5332 150.293 21.5332C146.514 21.5332 143.188 23.2617 140.317 26.7188C137.798 29.707 135.981 33.3105 134.868 37.5293H133.813L135.879 21.5332L138.384 21.2695C140.054 21.0938 142.104 20.918 144.536 20.7422C146.968 20.5664 149.326 20.4785 151.611 20.4785C155.391 20.4785 158.73 21.0205 161.631 22.1045C164.561 23.1592 166.846 25.0342 168.486 27.7295C170.127 30.4248 170.947 34.2188 170.947 39.1113V63.0615L176.528 64.5996V65.6543H166.465C164.561 65.6543 163.184 65.2295 162.334 64.3799C161.514 63.501 161.104 62.168 161.104 60.3809V51.5479C160.166 54.6533 159.067 57.334 157.808 59.5898C156.548 61.8457 155.01 63.6035 153.193 64.8633C151.406 66.0938 149.165 66.709 146.47 66.709ZM149.282 62.0947C154.409 62.0947 158.35 57.0264 161.104 46.8896V37.749C157.676 38.6865 154.731 39.5361 152.271 40.2979C146.294 42.085 143.306 46.2305 143.306 52.7344C143.306 55.8398 143.774 58.1836 144.712 59.7656C145.679 61.3184 147.202 62.0947 149.282 62.0947Z" fill="#1F1F1F"/>
<path d="M201.05 65.6104H179.648V64.5996L185.405 63.0176V2.63672L179.648 1.05469V0H189.932C191.836 0 193.198 0.424805 194.019 1.27441C194.868 2.12402 195.293 3.45703 195.293 5.27344V63.0176L201.05 64.5996V65.6104Z" fill="#1F1F1F"/>
<path d="M227.065 65.6104H205.664V64.5996L211.421 63.0176V2.63672L205.664 1.05469V0H215.947C217.852 0 219.214 0.424805 220.034 1.27441C220.884 2.12402 221.309 3.45703 221.309 5.27344V63.0176L227.065 64.5996V65.6104Z" fill="#1F1F1F"/>
<path d="M253.301 66.665C249.111 66.665 245.259 65.8154 241.743 64.1162C238.257 62.417 235.459 59.8535 233.35 56.4258C231.24 52.998 230.186 48.7207 230.186 43.5938C230.186 38.4375 231.108 34.1455 232.954 30.7178C234.8 27.29 237.407 24.7266 240.776 23.0273C244.175 21.3281 248.159 20.4785 252.729 20.4785C256.245 20.4785 259.336 20.9912 262.002 22.0166C264.668 23.042 266.748 24.5508 268.242 26.543C269.736 28.5352 270.483 30.9814 270.483 33.8818C270.483 37.6904 269.619 40.6201 267.891 42.6709C266.162 44.7217 263.467 46.1426 259.805 46.9336C256.172 47.6953 251.44 48.0762 245.61 48.0762H242.798C244.556 57.5684 249.346 62.3145 257.168 62.3145C260.186 62.3145 262.72 61.7725 264.771 60.6885C266.821 59.5752 268.359 58.1396 269.385 56.3818L270.088 56.7773C268.564 60.1465 266.338 62.6367 263.408 64.248C260.508 65.8594 257.139 66.665 253.301 66.665ZM245.61 47.0215C248.833 47.0215 251.455 46.6113 253.477 45.791C255.527 44.9707 257.036 43.5498 258.003 41.5283C258.97 39.4775 259.453 36.6064 259.453 32.915C259.453 29.3115 258.779 26.5137 257.432 24.5215C256.084 22.5293 254.268 21.5332 251.982 21.5332C249.58 21.5332 247.661 22.251 246.226 23.6865C244.79 25.1221 243.75 27.1875 243.105 29.8828C242.49 32.5781 242.183 35.8301 242.183 39.6387C242.183 42.3047 242.344 44.7656 242.666 47.0215H245.61Z" fill="#1F1F1F"/>
<path d="M295.005 65.6104H273.604V64.5996L279.36 63.0176V24.1699L273.604 22.5879V21.5332H283.887C285.791 21.5332 287.153 21.958 287.974 22.8076C288.823 23.6279 289.248 24.9463 289.248 26.7627V37.8809L292.061 29.2236C293.818 24.0967 297.188 21.5332 302.168 21.5332H309.419V32.0361H302.212C300.278 32.0361 298.506 32.1533 296.895 32.3877C295.312 32.5928 293.965 33.0762 292.852 33.8379C291.768 34.5996 290.977 35.7422 290.479 37.2656L289.248 41.3525V63.0176L295.005 64.5996V65.6104Z" fill="#1F1F1F"/>
<path d="M380.391 65.6104H356.353C351.46 65.6104 347.212 64.6729 343.608 62.7979C340.034 60.8936 337.266 58.0371 335.303 54.2285C333.369 50.4199 332.402 45.6592 332.402 39.9463C332.402 35.6104 333.105 32.0068 334.512 29.1357C335.918 26.2354 337.793 24.0674 340.137 22.6318C342.51 21.1963 345.103 20.4785 347.915 20.4785C352.017 20.4785 355.474 21.6357 358.286 23.9502C361.099 26.2646 363.237 29.8828 364.702 34.8047V2.63672L358.945 1.05469V0H369.229C371.133 0 372.495 0.424805 373.315 1.27441C374.165 2.12402 374.59 3.45703 374.59 5.27344V63.0176L380.391 64.5996V65.6104ZM364.702 64.0723V40.2979C364.028 36.8408 363.032 33.9844 361.714 31.7285C360.425 29.4727 358.975 27.8027 357.363 26.7188C355.781 25.6055 354.243 25.0488 352.749 25.0488C351.138 25.0488 349.614 25.5322 348.179 26.499C346.743 27.4365 345.571 28.9893 344.663 31.1572C343.755 33.3252 343.301 36.2549 343.301 39.9463C343.301 44.8682 344.194 49.1309 345.981 52.7344C347.769 56.3379 350.068 59.1357 352.881 61.1279C355.693 63.0908 358.623 64.0723 361.67 64.0723H364.702Z" fill="#1F1F1F"/>
<path d="M405.703 66.665C401.514 66.665 397.661 65.8154 394.146 64.1162C390.659 62.417 387.861 59.8535 385.752 56.4258C383.643 52.998 382.588 48.7207 382.588 43.5938C382.588 38.4375 383.511 34.1455 385.356 30.7178C387.202 27.29 389.81 24.7266 393.179 23.0273C396.577 21.3281 400.562 20.4785 405.132 20.4785C408.647 20.4785 411.738 20.9912 414.404 22.0166C417.07 23.042 419.15 24.5508 420.645 26.543C422.139 28.5352 422.886 30.9814 422.886 33.8818C422.886 37.6904 422.021 40.6201 420.293 42.6709C418.564 44.7217 415.869 46.1426 412.207 46.9336C408.574 47.6953 403.843 48.0762 398.013 48.0762H395.2C396.958 57.5684 401.748 62.3145 409.57 62.3145C412.588 62.3145 415.122 61.7725 417.173 60.6885C419.224 59.5752 420.762 58.1396 421.787 56.3818L422.49 56.7773C420.967 60.1465 418.74 62.6367 415.811 64.248C412.91 65.8594 409.541 66.665 405.703 66.665ZM398.013 47.0215C401.235 47.0215 403.857 46.6113 405.879 45.791C407.93 44.9707 409.438 43.5498 410.405 41.5283C411.372 39.4775 411.855 36.6064 411.855 32.915C411.855 29.3115 411.182 26.5137 409.834 24.5215C408.486 22.5293 406.67 21.5332 404.385 21.5332C401.982 21.5332 400.063 22.251 398.628 23.6865C397.192 25.1221 396.152 27.1875 395.508 29.8828C394.893 32.5781 394.585 35.8301 394.585 39.6387C394.585 42.3047 394.746 44.7656 395.068 47.0215H398.013Z" fill="#1F1F1F"/>
<path d="M447.407 65.6104H426.006V64.5996L431.763 63.0176V2.63672L426.006 1.05469V0H436.289C438.193 0 439.556 0.424805 440.376 1.27441C441.226 2.12402 441.65 3.45703 441.65 5.27344V63.0176L447.407 64.5996V65.6104Z" fill="#1F1F1F"/>
<path d="M227.401 165.507H206V164.496L211.757 162.914V105.17L206 103.588V102.533H229.994C234.887 102.533 239.12 103.485 242.694 105.39C246.298 107.265 249.066 110.106 251 113.915C252.963 117.724 253.944 122.484 253.944 128.197C253.944 132.533 253.241 136.151 251.835 139.052C250.429 141.923 248.554 144.076 246.21 145.512C243.866 146.947 241.273 147.665 238.432 147.665C234.33 147.665 230.873 146.508 228.061 144.193C225.248 141.879 223.109 138.275 221.645 133.383V162.914L227.401 164.496V165.507ZM233.598 143.095C235.209 143.095 236.732 142.626 238.168 141.688C239.604 140.722 240.775 139.154 241.684 136.986C242.592 134.789 243.046 131.859 243.046 128.197C243.046 123.275 242.167 118.983 240.409 115.321C238.651 111.63 236.366 108.773 233.554 106.752C230.771 104.73 227.782 103.72 224.589 103.72H221.645V127.89C222.318 131.347 223.3 134.203 224.589 136.459C225.907 138.686 227.357 140.355 228.939 141.469C230.551 142.553 232.104 143.095 233.598 143.095Z" fill="#1F1F1F"/>
<path d="M275.873 147.709C273.061 147.709 270.541 147.006 268.314 145.6C266.088 144.193 264.33 142.055 263.041 139.184C261.781 136.283 261.151 132.621 261.151 128.197V105.17L255.395 103.588V102.533H265.678C267.582 102.533 268.944 102.958 269.765 103.808C270.614 104.657 271.039 105.99 271.039 107.807V128.197C271.039 131.391 271.449 134.101 272.27 136.327C273.119 138.554 274.262 140.238 275.697 141.381C277.133 142.523 278.729 143.095 280.487 143.095C283.271 143.095 285.673 141.85 287.694 139.359C289.716 136.869 291.225 133.046 292.221 127.89V105.17L286.464 103.588V102.533H296.747C298.651 102.533 300.014 102.958 300.834 103.808C301.684 104.657 302.108 105.99 302.108 107.807V144.018L307.865 145.6V146.654H297.582C295.707 146.654 294.345 146.229 293.495 145.38C292.646 144.501 292.221 143.168 292.221 141.381V133.383C289.379 142.934 283.93 147.709 275.873 147.709Z" fill="#1F1F1F"/>
<path d="M363.456 146.61H342.011V145.6L347.812 144.018V120.946C347.812 117.724 347.387 115.014 346.537 112.816C345.717 110.59 344.589 108.905 343.153 107.763C341.718 106.62 340.121 106.049 338.363 106.049C335.609 106.049 333.207 107.294 331.156 109.784C329.105 112.274 327.582 116.112 326.586 121.298V144.018L332.343 145.6V146.61H310.941V145.6L316.698 144.018V105.17L310.941 103.588V102.533H321.225C323.129 102.533 324.491 102.958 325.312 103.808C326.161 104.628 326.586 105.946 326.586 107.763V115.805C329.398 106.254 334.862 101.479 342.978 101.479C345.79 101.479 348.295 102.182 350.492 103.588C352.719 104.965 354.462 107.089 355.722 109.96C357.011 112.831 357.655 116.493 357.655 120.946V144.018L363.456 145.6V146.61Z" fill="#1F1F1F"/>
<path d="M380.814 147.665C377.094 147.665 374.252 146.464 372.289 144.062C370.326 141.63 369.345 137.675 369.345 132.196V103.588H362.006V102.533H369.345V95.1064C369.345 93.5537 369.77 92.3965 370.619 91.6348C371.498 90.8438 372.86 90.2578 374.706 89.877L379.188 88.8662V102.533H389.296V103.588H379.188V132.504C379.188 136.225 379.643 138.847 380.551 140.37C381.488 141.864 382.777 142.611 384.418 142.611C386.791 142.611 388.827 141.22 390.526 138.437L391.186 138.832C390.424 141.732 389.208 143.93 387.538 145.424C385.868 146.918 383.627 147.665 380.814 147.665Z" fill="#1F1F1F"/>
<path d="M416.586 147.665C413.51 147.665 410.609 147.226 407.885 146.347C405.189 145.468 402.816 144.105 400.766 142.26C398.744 140.385 397.147 137.997 395.976 135.097C394.833 132.167 394.262 128.666 394.262 124.594C394.262 120.492 394.833 116.991 395.976 114.091C397.147 111.161 398.744 108.773 400.766 106.928C402.816 105.053 405.189 103.676 407.885 102.797C410.609 101.918 413.51 101.479 416.586 101.479C419.662 101.479 422.548 101.918 425.243 102.797C427.968 103.676 430.355 105.053 432.406 106.928C434.457 108.773 436.054 111.161 437.196 114.091C438.368 116.991 438.954 120.492 438.954 124.594C438.954 128.666 438.368 132.167 437.196 135.097C436.054 137.997 434.457 140.385 432.406 142.26C430.355 144.105 427.968 145.468 425.243 146.347C422.548 147.226 419.662 147.665 416.586 147.665ZM416.586 146.654C420.512 146.654 423.295 144.853 424.936 141.249C426.576 137.646 427.396 132.094 427.396 124.594C427.396 117.064 426.576 111.513 424.936 107.938C423.295 104.335 420.512 102.533 416.586 102.533C412.689 102.533 409.921 104.335 408.28 107.938C406.64 111.513 405.819 117.064 405.819 124.594C405.819 132.094 406.64 137.646 408.28 141.249C409.921 144.853 412.689 146.654 416.586 146.654Z" fill="#1F1F1F"/>
<path d="M469.452 165.507H463.827V155.048H471.649C478.446 155.048 482.606 153.334 484.13 149.906L485.492 146.61H484.877L467.914 105.521L461.938 103.588V102.533H486.503V103.588L478.593 105.17L490.59 134.262L502.587 105.17L497.006 103.588V102.533H509.442V103.588L503.729 105.17L481.669 158.651C480.907 160.409 479.823 161.786 478.417 162.782C477.04 163.778 475.531 164.481 473.891 164.892C472.279 165.302 470.8 165.507 469.452 165.507Z" fill="#1F1F1F"/>
<path d="M555.541 147.665C551.352 147.665 547.499 146.815 543.983 145.116C540.497 143.417 537.699 140.854 535.59 137.426C533.48 133.998 532.426 129.721 532.426 124.594C532.426 119.438 533.349 115.146 535.194 111.718C537.04 108.29 539.647 105.727 543.017 104.027C546.415 102.328 550.399 101.479 554.97 101.479C557.255 101.479 559.525 101.566 561.781 101.742C564.037 101.918 565.897 102.094 567.362 102.27L569.604 102.533L571.625 118.529H570.614C569.911 115.98 568.827 113.49 567.362 111.059C565.897 108.627 564.14 106.605 562.089 104.994C560.038 103.354 557.812 102.533 555.409 102.533C551.776 102.533 549.022 104.13 547.147 107.323C545.302 110.517 544.379 114.955 544.379 120.639C544.379 135.609 549.389 143.168 559.408 143.314C562.426 143.314 564.96 142.772 567.011 141.688C569.062 140.575 570.6 139.14 571.625 137.382L572.328 137.777C570.805 141.146 568.578 143.637 565.648 145.248C562.748 146.859 559.379 147.665 555.541 147.665Z" fill="#1F1F1F"/>
<path d="M597.729 147.665C594.652 147.665 591.752 147.226 589.027 146.347C586.332 145.468 583.959 144.105 581.908 142.26C579.887 140.385 578.29 137.997 577.118 135.097C575.976 132.167 575.404 128.666 575.404 124.594C575.404 120.492 575.976 116.991 577.118 114.091C578.29 111.161 579.887 108.773 581.908 106.928C583.959 105.053 586.332 103.676 589.027 102.797C591.752 101.918 594.652 101.479 597.729 101.479C600.805 101.479 603.69 101.918 606.386 102.797C609.11 103.676 611.498 105.053 613.549 106.928C615.6 108.773 617.196 111.161 618.339 114.091C619.511 116.991 620.097 120.492 620.097 124.594C620.097 128.666 619.511 132.167 618.339 135.097C617.196 137.997 615.6 140.385 613.549 142.26C611.498 144.105 609.11 145.468 606.386 146.347C603.69 147.226 600.805 147.665 597.729 147.665ZM597.729 146.654C601.654 146.654 604.438 144.853 606.078 141.249C607.719 137.646 608.539 132.094 608.539 124.594C608.539 117.064 607.719 111.513 606.078 107.938C604.438 104.335 601.654 102.533 597.729 102.533C593.832 102.533 591.063 104.335 589.423 107.938C587.782 111.513 586.962 117.064 586.962 124.594C586.962 132.094 587.782 137.646 589.423 141.249C591.063 144.853 593.832 146.654 597.729 146.654Z" fill="#1F1F1F"/>
<path d="M700.209 146.61H678.764V145.6L684.564 144.018V120.946C684.564 116.171 683.876 112.494 682.499 109.916C681.151 107.338 679.188 106.049 676.61 106.049C674.179 106.049 672.069 107.294 670.282 109.784C668.495 112.274 667.118 116.112 666.151 121.298V144.018L671.908 145.6V146.61H650.507V145.6L656.264 144.018V120.946C656.264 116.171 655.59 112.494 654.242 109.916C652.895 107.338 650.932 106.049 648.354 106.049C645.922 106.049 643.812 107.279 642.025 109.74C640.238 112.201 638.861 115.995 637.895 121.122V144.018L643.651 145.6V146.61H622.25V145.6L628.007 144.018V105.17L622.25 103.588V102.533H632.533C634.438 102.533 635.8 102.958 636.62 103.808C637.47 104.628 637.895 105.946 637.895 107.763V115.629C640.59 106.195 645.57 101.479 652.836 101.479C656.469 101.479 659.413 102.709 661.669 105.17C663.954 107.631 665.375 111.41 665.932 116.508C668.598 106.488 673.651 101.479 681.093 101.479C685.224 101.479 688.476 103.061 690.849 106.225C693.222 109.389 694.408 114.296 694.408 120.946V144.018L700.209 145.6V146.61Z" fill="#1F1F1F"/>
<path d="M717.655 147.709C713.231 147.709 709.73 146.625 707.152 144.457C704.574 142.289 703.285 139.359 703.285 135.668C703.285 132.592 703.769 130.16 704.735 128.373C705.702 126.557 707.182 125.121 709.174 124.066C711.166 122.982 713.7 122.074 716.776 121.342L732.201 117.475C731.908 112.377 730.824 108.612 728.949 106.181C727.104 103.749 724.613 102.533 721.479 102.533C717.699 102.533 714.374 104.262 711.503 107.719C708.983 110.707 707.167 114.311 706.054 118.529H704.999L707.064 102.533L709.569 102.27C711.239 102.094 713.29 101.918 715.722 101.742C718.153 101.566 720.512 101.479 722.797 101.479C726.576 101.479 729.916 102.021 732.816 103.104C735.746 104.159 738.031 106.034 739.672 108.729C741.312 111.425 742.133 115.219 742.133 120.111V144.062L747.714 145.6V146.654H737.65C735.746 146.654 734.369 146.229 733.52 145.38C732.699 144.501 732.289 143.168 732.289 141.381V132.548C731.352 135.653 730.253 138.334 728.993 140.59C727.733 142.846 726.195 144.604 724.379 145.863C722.592 147.094 720.351 147.709 717.655 147.709ZM720.468 143.095C725.595 143.095 729.535 138.026 732.289 127.89V118.749C728.861 119.687 725.917 120.536 723.456 121.298C717.479 123.085 714.491 127.23 714.491 133.734C714.491 136.84 714.96 139.184 715.897 140.766C716.864 142.318 718.388 143.095 720.468 143.095Z" fill="#1F1F1F"/>
</svg>
