<svg width="16" height="60" viewBox="0 0 16 60" fill="none" xmlns="http://www.w3.org/2000/svg">
<path fill-rule="evenodd" clip-rule="evenodd" d="M2.14452 13.7782C3.5742 15.2221 5.37685 15.9441 7.55245 15.9441C9.72805 15.9441 11.5307 15.2221 12.9604 13.7782C14.3901 12.3036 15.1049 10.3682 15.1049 7.97202C15.1049 5.60653 14.3901 3.68648 12.9604 2.21189C11.5307 0.737297 9.72805 0 7.55245 0C5.37685 0 3.5742 0.737297 2.14452 2.21189C0.714841 3.68648 0 5.60653 0 7.97202C0 10.3682 0.714841 12.3036 2.14452 13.7782ZM0.574082 51.0424V60H1.7071C4.93449 60 7.49236 59.0973 9.38073 57.2919C11.2691 55.4865 12.6253 52.8652 13.4493 49.4279C14.2265 46.2188 14.2639 45.7774 14.6177 41.6055C14.639 41.3542 14.6615 41.0892 14.6853 40.8094C15.1049 35.8844 14.6853 19.3007 14.6853 19.3007H0.41958V35.2369H10.1017C8.07604 35.6882 6.84002 36.4521 6.39368 37.5284C6.10501 38.3068 6.0751 38.6717 5.97262 39.9222C5.92883 40.4564 5.8718 41.1524 5.77567 42.1113C5.58654 43.998 5.56064 44.3516 5.50116 44.6995C5.45965 44.9423 5.40178 45.1823 5.26066 45.9387C4.91732 47.8135 4.47098 49.1328 3.92164 49.8967C3.3723 50.6605 2.77145 51.0424 2.11911 51.0424H0.574082Z" fill="#1F1F1F"/>
</svg>