<svg width="89" height="88" viewBox="0 0 89 88" fill="none" xmlns="http://www.w3.org/2000/svg">
<path fill-rule="evenodd" clip-rule="evenodd" d="M0.374881 29.9376C0.332237 15.1294 11.1946 2.54771 25.8506 0.429536C40.5066 -1.68864 54.4868 7.30263 58.6386 21.517C58.5261 21.517 58.4249 21.5001 58.3124 21.5001C56.5039 21.5142 54.6989 21.6628 52.9124 21.9445C49.2108 11.3028 38.6365 4.64027 27.4395 5.89487C16.2425 7.14947 7.4049 15.9871 6.1503 27.184C4.8957 38.381 11.5582 48.9554 22.1999 52.657C21.916 54.4452 21.7656 56.252 21.7499 58.0626C21.7499 58.1751 21.7668 58.282 21.7668 58.3888C9.12438 54.6859 0.421485 43.111 0.374881 29.9376ZM23.4094 47.1726C23.9809 45.3879 24.6899 43.6502 25.53 41.9751C20.5496 40.0567 17.2602 35.2747 17.25 29.9376H11.625C11.6438 37.5566 16.3164 44.3905 23.4094 47.1726ZM30.1875 22.6251C33.5477 22.6591 36.4398 25.0077 37.1625 28.2894C38.7663 27.1519 40.4593 26.1455 42.225 25.2801C39.9947 19.4592 33.9251 16.0621 27.7973 17.2048C21.6695 18.3476 17.2323 23.7041 17.25 29.9376H22.875C22.8781 25.9003 26.1502 22.6282 30.1875 22.6251ZM88.125 58.0626C88.125 74.5276 74.7775 87.8751 58.3125 87.8751C41.8475 87.8751 28.5 74.5276 28.5 58.0626C28.5 41.5976 41.8475 28.2501 58.3125 28.2501C74.7698 28.2687 88.1064 41.6053 88.125 58.0626ZM58.3125 33.8751C44.9541 33.8751 34.125 44.7042 34.125 58.0626C34.125 71.421 44.9541 82.2501 58.3125 82.2501C71.6709 82.2501 82.5 71.421 82.5 58.0626C82.4876 44.7093 71.6657 33.8875 58.3125 33.8751ZM58.3125 71.0001C51.1699 70.9939 45.3812 65.2052 45.375 58.0626H39.75C39.75 68.3144 48.0607 76.6251 58.3125 76.6251C68.5643 76.6251 76.875 68.3144 76.875 58.0626H71.25C71.2438 65.2052 65.4551 70.9939 58.3125 71.0001ZM58.3125 45.1251C51.1699 45.1313 45.3812 50.92 45.375 58.0626H51C51 54.024 54.2739 50.7501 58.3125 50.7501C62.3511 50.7501 65.625 54.024 65.625 58.0626H71.25C71.2438 50.92 65.4551 45.1313 58.3125 45.1251Z" fill="#F9EFE3"/>
</svg>
