<svg width="91" height="90" viewBox="0 0 91 90" fill="none" xmlns="http://www.w3.org/2000/svg">
<path fill-rule="evenodd" clip-rule="evenodd" d="M12.0175 42.5081H6.39249C7.76188 22.7374 23.494 7.00043 43.2644 5.625V11.3625C26.8255 12.6041 13.6579 25.4822 12.0512 41.8894C12.0287 42.0975 12.0344 42.3056 12.0175 42.5138V42.5081ZM72.6381 23.7206C77.0147 29.0669 79.656 35.6211 80.2094 42.5081H85.8344C84.4603 22.7127 68.6873 6.96844 48.8894 5.63063V11.2781C58.1746 12.0058 66.7569 16.5043 72.6381 23.7262V23.7206ZM80.1587 48.8194C78.5433 65.2429 65.3472 78.1233 48.8894 79.3406V85.0781C68.7079 83.7334 84.4844 67.952 85.8231 48.1331H80.1981C80.1756 48.3581 80.1812 48.5887 80.1587 48.8194ZM19.5831 66.9769C15.1919 61.6165 12.546 55.041 12.0006 48.1331H6.37561C7.72215 67.9285 23.4705 83.6936 43.2644 85.0613V79.4194C34.002 78.6766 25.4453 74.1819 19.5775 66.9769H19.5831ZM52.9562 23.4506C51.6286 23.0507 50.2674 22.772 48.8894 22.6181V28.2656C49.6942 28.3943 50.4893 28.5785 51.2687 28.8169C57.4763 30.786 62.0482 36.08 63.0925 42.5081H68.8019C67.7117 33.5972 61.5139 26.1458 52.9506 23.4506H52.9562ZM29.0894 48.1331H23.3744C24.5365 58.6031 32.7957 66.8717 43.2644 68.0456V62.3981C42.4709 62.2704 41.6871 62.0881 40.9187 61.8525C34.7009 59.8806 30.1249 54.5734 29.0894 48.1331ZM43.2644 28.2544V22.6294C32.8081 23.8007 24.5543 32.0522 23.38 42.5081H29.0894C29.1937 41.716 29.3535 40.9322 29.5675 40.1625C31.5029 33.9152 36.8086 29.3024 43.2644 28.2544ZM48.8894 62.4263V68.0513C59.3701 66.8855 67.6444 58.6135 68.8131 48.1331H63.0981C62.9919 48.9369 62.8283 49.732 62.6087 50.5125C60.6697 56.7662 55.3536 61.3805 48.8894 62.4206V62.4263ZM46.0769 36.8831C41.417 36.8831 37.6394 40.6607 37.6394 45.3206C37.6394 49.9805 41.417 53.7581 46.0769 53.7581C50.7368 53.7581 54.5144 49.9805 54.5144 45.3206C54.5144 40.6607 50.7368 36.8831 46.0769 36.8831Z" fill="#F9EFE3"/>
</svg>
