<svg width="68" height="86" viewBox="0 0 68 86" fill="none" xmlns="http://www.w3.org/2000/svg">
<path fill-rule="evenodd" clip-rule="evenodd" d="M33.75 0.8125C21.339 0.849567 11.2871 10.9015 11.25 23.3125V34.5625H5.625C2.52224 34.5718 0.00926663 37.0847 0 40.1875V79.5625C0.00926663 82.6653 2.52224 85.1782 5.625 85.1875H61.875C64.9778 85.1782 67.4907 82.6653 67.5 79.5625V40.1875C67.4907 37.0847 64.9778 34.5718 61.875 34.5625H56.25V23.3125C56.2129 10.9015 46.161 0.849567 33.75 0.8125ZM16.875 23.3125C16.875 13.9927 24.4302 6.4375 33.75 6.4375C43.0698 6.4375 50.625 13.9927 50.625 23.3125V34.5625H45V23.3125C45 17.0993 39.9632 12.0625 33.75 12.0625C27.5368 12.0625 22.5 17.0993 22.5 23.3125V34.5625H16.875V23.3125ZM39.375 34.5625H28.125V23.3125C28.125 20.2059 30.6434 17.6875 33.75 17.6875C36.8566 17.6875 39.375 20.2059 39.375 23.3125V34.5625ZM61.875 40.1875V79.5625H5.625V40.1875H61.875ZM33.75 51.4375H39.375V57.0625H33.75V62.6875H39.375V68.3125H33.75V73.9375H28.125V45.8125H33.75V51.4375Z" fill="#F9EFE3"/>
</svg>
