<svg width="83" height="89" viewBox="0 0 83 89" fill="none" xmlns="http://www.w3.org/2000/svg">
<path fill-rule="evenodd" clip-rule="evenodd" d="M-5.12511e-05 50.625C-0.0274429 66.7621 10.0756 81.1806 25.2526 86.664C40.4296 92.1474 57.4152 87.516 67.7084 75.0879C78.0016 62.6597 79.3877 45.1086 71.1731 31.2187L82.5862 19.8056L69.0693 6.28875L57.6506 17.7019C45.8357 10.7074 31.1757 10.5928 19.253 17.4017C7.33019 24.2106 -0.020494 36.895 -5.12511e-05 50.625ZM69.0693 14.9738L73.9068 19.8113L69.0693 24.6431L64.2318 19.8056L69.0693 14.9738ZM38.25 18C56.2682 18 70.875 32.6067 70.875 50.625C70.875 68.6433 56.2682 83.25 38.25 83.25C20.2317 83.25 5.62495 68.6433 5.62495 50.625C5.64355 32.6144 20.2394 18.0186 38.25 18ZM55.125 56.25H32.625V28.125H38.25V50.625H55.125V56.25ZM49.5 5.625H27V0H49.5V5.625Z" fill="#F9EFE3"/>
</svg>
